# xmcd
#
# Track frame offsets:
#	150
#	9620
#	19345
#	35305
#	47732
#	60810
#	84090
#	100150
#	109717
#	118210
#	137005
#	146147
#	167555
#
# Disc length: 2738 seconds
#
# Revision: 1
# Processed by: cddbd v1.5.1PL0 Copyright (c) Steve Scherf et al.
# Submitted via: CDex 1.50Beta5
#
DISCID=a10ab00d
DTITLE=サウンドトラック - KID'S SONG ユーロビート
DYEAR=1900
DGENRE=
TTITLE0=ぶんぶんぶん
TTITLE1=どんぐりころころ
TTITLE2=南の島のハメハメハ大王
TTITLE3=いぬのおまわりさん
TTITLE4=めだかの学校
TTITLE5=森のくまさん
TTITLE6=おもちゃのチャチャチャ
TTITLE7=大きな古時計
TTITLE8=やぎさんゆうびん
TTITLE9=いとまきのうた
TTITLE10=アイアイ
TTITLE11=いぬのおまわりさん(Eng.ver)
TTITLE12=キッズ・スターズ・オン・ノン・スットプ・ミックス
EXTD=
EXTT0=
EXTT1=
EXTT2=
EXTT3=
EXTT4=
EXTT5=
EXTT6=
EXTT7=
EXTT8=
EXTT9=
EXTT10=
EXTT11=
EXTT12=
PLAYORDER=
